<svg width="167" height="100" viewBox="0 0 167 100" fill="none" xmlns="http://www.w3.org/2000/svg">
<rect width="167" height="100" fill="#F0F0F0"/>
<path d="M65.1887 61.1685V45.0843C65.1887 44.1363 65.6234 43.2272 66.3971 42.5569C67.1709 41.8866 68.2203 41.51 69.3146 41.51H71.2331C71.9122 41.5101 72.5808 41.3649 73.1796 41.0875C73.7784 40.81 74.2889 40.4088 74.6658 39.9194L76.3409 37.7391C76.7177 37.2497 77.2282 36.8485 77.8271 36.5711C78.4259 36.2936 79.0945 36.1485 79.7735 36.1486H87.7364C88.4155 36.1485 89.0841 36.2936 89.6829 36.5711C90.2817 36.8485 90.7922 37.2497 91.1691 37.7391L92.8442 39.9194C93.2211 40.4088 93.7316 40.81 94.3304 41.0875C94.9292 41.3649 95.5978 41.5101 96.2769 41.51H98.1954C99.2896 41.51 100.339 41.8866 101.113 42.5569C101.887 43.2272 102.321 44.1363 102.321 45.0843V61.1685C102.321 62.1165 101.887 63.0256 101.113 63.6959C100.339 64.3662 99.2896 64.7428 98.1954 64.7428H69.3146C68.2203 64.7428 67.1709 64.3662 66.3971 63.6959C65.6234 63.0256 65.1887 62.1165 65.1887 61.1685Z" fill="#CCCCCC" stroke="#CCCCCC" stroke-width="4" stroke-linecap="round" stroke-linejoin="round"/>
<path d="M83.5 59C87.6421 59 91 55.6421 91 51.5C91 47.3579 87.6421 44 83.5 44C79.3579 44 76 47.3579 76 51.5C76 55.6421 79.3579 59 83.5 59Z" stroke="white" stroke-width="2" stroke-linecap="round" stroke-linejoin="round"/>
</svg>
